{"title":"St George Dragons vs Canberra Raiders (Round 10 - 2016)","uid":14615238,"size":4186634771,"categoryP":"video","categoryS":"hd___tv_shows","magnet":"?xt=urn:btih:608eab3829b61a5a04e0796c356c7152fb99e2dc&amp;dn=St+George+Dragons+vs+Canberra+Raiders+%28Round+10+-+2016%29&amp;tr=udp%3A%2F%2Ftracker.leechers-paradise.org%3A6969&amp;tr=udp%3A%2F%2Fzer0day.ch%3A1337&amp;tr=udp%3A%2F%2Fopen.demonii.com%3A1337&amp;tr=udp%3A%2F%2Ftracker.coppersurfer.tk%3A6969&amp;tr=udp%3A%2F%2Fexodus.desync.com%3A6969","seeders":0,"leechers":0,"uploader":"riseagainstMPAA1","files":1,"time":1463192340,"description":"St George Dragons vs Canberra Raiders (Round 10 - 2016)\r\n\r\nUse your favourite Media Player to view. I use VLC. These are encoded in FLV format, you can still use VLC to view.\r\n\r\nSCREENSHOTS - http://i.imgur.com/3GFKKN1.jpg\r\n\r\nGeneral\r\nFormat : Flash Video\r\nFile size : 3.90 GiB\r\nDuration : 2h 22mn\r\nOverall bit rate mode : Variable\r\nOverall bit rate : 3 920 Kbps\r\n\r\nVideo\r\nFormat : AVC\r\nFormat/Info : Advanced Video Codec\r\nFormat profile :   \r\nFormat settings, CABAC : Yes\r\nFormat settings, ReFrames : 1 frame\r\nCodec ID : 7\r\nDuration : 2h 22mn\r\nBit rate mode : Variable\r\nBit rate : 3 409 Kbps\r\nMaximum bit rate : 3 699 Kbps\r\nWidth : 1 280 pixels\r\nHeight : 720 pixels\r\nDisplay aspect ratio : 16:9\r\nFrame rate mode : Constant\r\nFrame rate : 25.000 fps\r\nColor space : YUV\r\nChroma subsampling : 4:2:0\r\nBit depth : 8 bits\r\nScan type : Progressive\r\nBits/(Pixel*Frame) : 0.148\r\nStream size : 3.39 GiB (87%)\r\n\r\nAudio\r\nFormat : AAC\r\nFormat/Info : Advanced Audio Codec\r\nFormat profile : LC\r\nCodec ID : 10\r\nDuration : 2h 22mn\r\nBit rate : 312 Kbps\r\nChannel(s) : 2 channels\r\nChannel positions : Front: L R\r\nSampling rate : 44.1 KHz\r\nFrame rate : 43.066 fps (1024 spf)\r\nCompression mode : Lossy\r\nStream size : 318 MiB (8%)","torrent":{"xt":"urn:btih:608eab3829b61a5a04e0796c356c7152fb99e2dc","amp;dn":"St+George+Dragons+vs+Canberra+Raiders+%28Round+10+-+2016%29","amp;tr":["udp%3A%2F%2Ftracker.leechers-paradise.org%3A6969","udp%3A%2F%2Fzer0day.ch%3A1337","udp%3A%2F%2Fopen.demonii.com%3A1337","udp%3A%2F%2Ftracker.coppersurfer.tk%3A6969","udp%3A%2F%2Fexodus.desync.com%3A6969"],"infoHash":"608eab3829b61a5a04e0796c356c7152fb99e2dc","infoHashBuffer":{"type":"Buffer","data":[96,142,171,56,41,182,26,90,4,224,121,108,53,108,113,82,251,153,226,220]},"announce":[],"urlList":[]}}